                                                                        S      1
,,,12H90degreesigs,22HAutodesk Inventor 2015,7Hunknown,32,38,7,99,15,,  G      1
1.,1,4HINCH,1,0.08,15H20160507.131529,0.000393700787401575,10000.,10HnkoG      2
silathi,,11,0,;                                                         G      3
     186       1                                                00000000D      1
     186            -151       1       0                               0D      2
     514       2                                                00010000D      3
     514                       2       1                               0D      4
     510       4                                                00010000D      5
     510            -151       1       1                               0D      6
     510       5                                                00010000D      7
     510            -151       1       1                               0D      8
     510       6                                                00010000D      9
     510            -151       1       1                               0D     10
     510       7                                                00010000D     11
     510            -151       1       1                               0D     12
     510       8                                                00010000D     13
     510            -151       1       1                               0D     14
     510       9                                                00010000D     15
     510            -151       1       1                               0D     16
     510      10                                                00010000D     17
     510            -151       1       1                               0D     18
     510      11                                                00010000D     19
     510            -151       1       1                               0D     20
     510      12                                                00010000D     21
     510            -151       1       1                               0D     22
     510      13                                                00010000D     23
     510            -151       1       1                               0D     24
     510      14                                                00010000D     25
     510            -151       1       1                               0D     26
     510      15                                                00010000D     27
     510            -151       1       1                               0D     28
     510      16                                                00010000D     29
     510            -151       1       1                               0D     30
     510      17                                                00010000D     31
     510            -151       1       1                               0D     32
     508      18                                                00010000D     33
     508                       1       1                               0D     34
     508      19                                                00010000D     35
     508                       1       1                               0D     36
     508      20                                                00010000D     37
     508                       1       1                               0D     38
     508      21                                                00010000D     39
     508                       1       1                               0D     40
     508      22                                                00010000D     41
     508                       1       1                               0D     42
     508      23                                                00010000D     43
     508                       1       1                               0D     44
     508      24                                                00010000D     45
     508                       1       1                               0D     46
     508      25                                                00010000D     47
     508                       1       1                               0D     48
     508      26                                                00010000D     49
     508                       1       1                               0D     50
     508      27                                                00010000D     51
     508                       1       1                               0D     52
     508      28                                                00010000D     53
     508                       1       1                               0D     54
     508      29                                                00010000D     55
     508                       1       1                               0D     56
     508      30                                                00010000D     57
     508                       1       1                               0D     58
     508      31                                                00010000D     59
     508                       1       1                               0D     60
     126      32                                                00010000D     61
     126       0               7       0                               0D     62
     126      39                                                00010000D     63
     126       0               4       0                               0D     64
     126      43                                                00010000D     65
     126       0               6       0                               0D     66
     126      49                                                00010000D     67
     126       0               3       0                               0D     68
     126      52                                                00010000D     69
     126       0               4       0                               0D     70
     126      56                                                00010000D     71
     126       0               3       0                               0D     72
     126      59                                                00010000D     73
     126       0               4       0                               0D     74
     126      63                                                00010000D     75
     126       0               3       0                               0D     76
     126      66                                                00010000D     77
     126       0               3       0                               0D     78
     126      69                                                00010000D     79
     126       0               3       0                               0D     80
     126      72                                                00010000D     81
     126       0               3       0                               0D     82
     126      75                                                00010000D     83
     126       0               3       0                               0D     84
     126      78                                                00010000D     85
     126       0               3       0                               0D     86
     126      81                                                00010000D     87
     126       0               2       0                               0D     88
     126      83                                                00010000D     89
     126       0               3       0                               0D     90
     126      86                                                00010000D     91
     126       0               2       0                               0D     92
     126      88                                                00010000D     93
     126       0               3       0                               0D     94
     126      91                                                00010000D     95
     126       0               3       0                               0D     96
     126      94                                                00010000D     97
     126       0               2       0                               0D     98
     126      96                                                00010000D     99
     126       0               2       0                               0D    100
     126      98                                                00010000D    101
     126       0               3       0                               0D    102
     126     101                                                00010000D    103
     126       0               3       0                               0D    104
     126     104                                                00010000D    105
     126       0               4       0                               0D    106
     126     108                                                00010000D    107
     126       0               3       0                               0D    108
     126     111                                                00010000D    109
     126       0               4       0                               0D    110
     126     115                                                00010000D    111
     126       0               3       0                               0D    112
     126     118                                                00010000D    113
     126       0               3       0                               0D    114
     126     121                                                00010000D    115
     126       0               3       0                               0D    116
     128     124                                                00010000D    117
     128       0    -151       9       0                               0D    118
     128     133                                                00010000D    119
     128       0    -151       6       0                               0D    120
     128     139                                                00010000D    121
     128       0    -151       9       0                               0D    122
     128     148                                                00010000D    123
     128       0    -151       9       0                               0D    124
     128     157                                                00010000D    125
     128       0    -151       4       0                               0D    126
     128     161                                                00010000D    127
     128       0    -151       4       0                               0D    128
     128     165                                                00010000D    129
     128       0    -151       4       0                               0D    130
     128     169                                                00010000D    131
     128       0    -151       5       0                               0D    132
     128     174                                                00010000D    133
     128       0    -151       3       0                               0D    134
     128     177                                                00010000D    135
     128       0    -151       6       0                               0D    136
     128     183                                                00010000D    137
     128       0    -151       8       0                               0D    138
     128     191                                                00010000D    139
     128       0    -151       5       0                               0D    140
     128     196                                                00010000D    141
     128       0    -151       7       0                               0D    142
     128     203                                                00010000D    143
     128       0    -151       6       0                               0D    144
     502     209                                                00010000D    145
     502                       9       1                               0D    146
     504     218                                                00010001D    147
     504                       8       1                               0D    148
     406     226                                                00000000D    149
     406                       1      15                               0D    150
     314     227                                                00000200D    151
     314                       1       0                               0D    152
186,3,1,0,0,1,149;                                                     1P      1
514,14,5,1,7,1,9,1,11,1,13,1,15,1,17,1,19,1,21,1,23,1,25,1,27,1,       3P      2
29,1,31,1;                                                             3P      3
510,117,1,1,33;                                                        5P      4
510,119,1,1,35;                                                        7P      5
510,121,1,1,37;                                                        9P      6
510,123,1,1,39;                                                       11P      7
510,125,1,1,41;                                                       13P      8
510,127,1,1,43;                                                       15P      9
510,129,1,1,45;                                                       17P     10
510,131,1,1,47;                                                       19P     11
510,133,1,1,49;                                                       21P     12
510,135,1,1,51;                                                       23P     13
510,137,1,1,53;                                                       25P     14
510,139,1,1,55;                                                       27P     15
510,141,1,1,57;                                                       29P     16
510,143,1,1,59;                                                       31P     17
508,4,0,147,1,0,0,0,147,2,0,0,0,147,3,0,0,0,147,4,0,0;                33P     18
508,4,0,147,5,0,0,0,147,6,0,0,0,147,7,0,0,0,147,8,0,0;                35P     19
508,4,0,147,5,1,0,0,147,9,0,0,0,147,1,1,0,0,147,10,0,0;               37P     20
508,4,0,147,7,1,0,0,147,11,0,0,0,147,3,1,0,0,147,12,0,0;              39P     21
508,4,0,147,6,1,0,0,147,13,1,0,0,147,14,1,0,0,147,15,1,0;             41P     22
508,4,0,147,11,1,0,0,147,15,0,0,0,147,16,0,0,0,147,17,0,0;            43P     23
508,4,0,147,10,1,0,0,147,18,0,0,0,147,19,0,0,0,147,13,0,0;            45P     24
508,4,0,147,4,1,0,0,147,17,1,0,0,147,20,0,0,0,147,18,1,0;             47P     25
508,4,0,147,16,1,0,0,147,14,0,0,0,147,19,1,0,0,147,20,1,0;            49P     26
508,4,0,147,9,1,0,0,147,21,0,0,0,147,22,0,0,0,147,23,0,0;             51P     27
508,4,0,147,2,1,0,0,147,23,1,0,0,147,24,1,0,0,147,25,1,0;             53P     28
508,4,0,147,26,1,0,0,147,24,0,0,0,147,22,1,0,0,147,27,1,0;            55P     29
508,4,0,147,8,1,0,0,147,28,1,0,0,147,27,0,0,0,147,21,1,0;             57P     30
508,4,0,147,12,1,0,0,147,25,0,0,0,147,26,0,0,0,147,28,0,0;            59P     31
126,2,2,0,0,0,0,-1.5707963267949,-1.5707963267949,                    61P     32
-1.5707963267949,2.94598655020805D-47,2.94598655020805D-47,           61P     33
2.94598655020805D-47,1.,0.707106781186549,1.,                         61P     34
-3.11579497752824D-16,2.49420372073643,0.24,                          61P     35
-3.11579497752824D-16,2.49420372073643,4.37095678986282D-17,          61P     36
-1.74838271594513D-16,2.25420372073643,0.,-1.5707963267949,           61P     37
2.94598655020805D-47,0.,0.,0.;                                        61P     38
126,1,1,0,0,1,0,-0.1524,-0.1524,0.1524,0.1524,1.,1.,                  63P     39
-1.54650683355052D-16,2.37420372073643,0.24,                          63P     40
-1.54650683355052D-16,2.49420372073643,0.24,-0.1524,0.1524,0.,        63P     41
0.,0.;                                                                63P     42
126,2,2,0,0,0,0,-2.94598655020805D-47,-2.94598655020805D-47,          65P     43
-2.94598655020805D-47,1.5707963267949,1.5707963267949,                65P     44
1.5707963267949,1.,0.707106781186551,1.,-1.74838271594513D-16,        65P     45
2.25420372073643,0.12,-2.43208884673669D-16,2.37420372073643,         65P     46
0.12,-2.43208884673669D-16,2.37420372073643,0.24,                     65P     47
-2.94598655020805D-47,1.5707963267949,0.,0.,0.;                       65P     48
126,1,1,0,0,1,0,-0.1524,-0.1524,0.1524,0.1524,1.,1.,                  67P     49
-1.74838271594513D-16,2.25420372073643,0.,-1.74838271594513D-16,      67P     50
2.25420372073643,0.12,-0.1524,0.1524,0.,0.,0.;                        67P     51
126,2,2,0,0,0,0,0.,0.,0.,1.5707963267949,1.5707963267949,             69P     52
1.5707963267949,1.,0.707106781186549,1.,-2.,2.25420372073643,0.,      69P     53
-2.,2.49420372073643,4.37095678986282D-17,-2.,2.49420372073643,       69P     54
0.24,0.,1.5707963267949,0.,0.,0.;                                     69P     55
126,1,1,0,0,1,0,-0.1524,-0.1524,0.1524,0.1524,1.,1.,-2.,              71P     56
2.25420372073643,0.12,-2.,2.25420372073643,0.,-0.1524,0.1524,0.,      71P     57
0.,0.;                                                                71P     58
126,2,2,0,0,0,0,-1.5707963267949,-1.5707963267949,                    73P     59
-1.5707963267949,0.,0.,0.,1.,0.707106781186551,1.,-2.,                73P     60
2.37420372073643,0.24,-2.,2.37420372073643,0.12,-2.,                  73P     61
2.25420372073643,0.12,-1.5707963267949,0.,0.,0.,0.;                   73P     62
126,1,1,0,0,1,0,-0.1524,-0.1524,0.1524,0.1524,1.,1.,-2.,              75P     63
2.49420372073643,0.24,-2.,2.37420372073643,0.24,-0.1524,0.1524,       75P     64
0.,0.,0.;                                                             75P     65
126,1,1,0,0,1,0,-1.27,-1.27,3.81,3.81,1.,1.,                          77P     66
-1.74838271594513D-16,2.49420372073643,0.24,-2.,                      77P     67
2.49420372073643,0.24,-1.27,3.81,0.,0.,0.;                            77P     68
126,1,1,0,0,1,0,-1.27,-1.27,3.81,3.81,1.,1.,-2.,                      79P     69
2.25420372073643,0.,-1.74838271594513D-16,2.25420372073643,0.,        79P     70
-1.27,3.81,0.,0.,0.;                                                  79P     71
126,1,1,0,0,1,0,-3.81,-3.81,1.27,1.27,1.,1.,                          81P     72
-1.74838271594513D-16,2.25420372073643,0.12,-2.,                      81P     73
2.25420372073643,0.12,-3.81,1.27,0.,0.,0.;                            81P     74
126,1,1,0,0,1,0,-3.81,-3.81,1.27,1.27,1.,1.,-2.,                      83P     75
2.37420372073643,0.24,-1.74838271594513D-16,2.37420372073643,         83P     76
0.24,-3.81,1.27,0.,0.,0.;                                             83P     77
126,1,1,0,0,1,0,6.97432254932947,6.97432254932947,12.7,12.7,1.,       85P     78
1.,-2.,2.25420372073643,0.,-2.,0.,0.,6.97432254932947,12.7,0.,        85P     79
0.,0.;                                                                85P     80
126,1,1,0,0,1,0,0.,0.,0.3048,0.3048,1.,1.,-2.,0.,0.,-2.,0.,0.12,      87P     81
0.,0.3048,0.,0.,0.;                                                   87P     82
126,1,1,0,0,1,0,-12.7,-12.7,-6.97432254932947,-6.97432254932947,      89P     83
1.,1.,-2.,0.,0.12,-2.,2.25420372073643,0.12,-12.7,                    89P     84
-6.97432254932947,0.,0.,0.;                                           89P     85
126,1,1,0,0,1,0,-5.08,-5.08,0.,0.,1.,1.,0.,0.,0.12,-2.,0.,0.12,       91P     86
-5.08,0.,0.,0.,0.;                                                    91P     87
126,1,1,0,0,1,0,-5.72567745067053,-5.72567745067053,0.,0.,1.,1.,      93P     88
-1.38030168561296D-16,2.25420372073643,0.12,0.,0.,0.12,               93P     89
-5.72567745067053,0.,0.,0.,0.;                                        93P     90
126,1,1,0,0,1,0,0.,0.,5.72567745067053,5.72567745067053,1.,1.,        95P     91
0.,0.,0.,-1.38030168561296D-16,2.25420372073643,0.,0.,                95P     92
5.72567745067053,0.,0.,0.;                                            95P     93
126,1,1,0,0,1,0,0.,0.,5.08,5.08,1.,1.,-2.,0.,0.,0.,0.,0.,0.,          97P     94
5.08,0.,0.,0.;                                                        97P     95
126,1,1,0,0,1,0,0.,0.,0.3048,0.3048,1.,1.,0.,0.,0.,0.,0.,0.12,        99P     96
0.,0.3048,0.,0.,0.;                                                   99P     97
126,1,1,0,0,1,0,0.,0.,6.28488119194326,6.28488119194326,1.,1.,       101P     98
-2.,2.49420372073643,2.71436267399341,-2.,2.49420372073643,0.24,     101P     99
0.,6.28488119194326,0.,0.,0.;                                        101P    100
126,1,1,0,0,1,0,0.,0.,5.08,5.08,1.,1.,-3.49676543189026D-16,         103P    101
2.49420372073643,2.71436267399341,-2.,2.49420372073643,              103P    102
2.71436267399341,0.,5.08,0.,0.,0.;                                   103P    103
126,1,1,0,0,1,0,6.41511880805674,6.41511880805674,12.7,12.7,1.,      105P    104
1.,-1.54650683355052D-16,2.49420372073643,0.24,                      105P    105
-3.06161699786838D-16,2.49420372073643,2.71436267399341,             105P    106
6.41511880805674,12.7,0.,0.,0.;                                      105P    107
126,1,1,0,0,1,0,0.,0.,0.3048,0.3048,1.,1.,-3.06161699786838D-16,     107P    108
2.49420372073643,2.71436267399341,-3.06161699786838D-16,             107P    109
2.37420372073643,2.71436267399341,0.,0.3048,0.,0.,0.;                107P    110
126,1,1,0,0,1,0,-12.7,-12.7,-6.41511880805674,-6.41511880805674,     109P    111
1.,1.,-3.06161699786838D-16,2.37420372073643,2.71436267399341,       109P    112
-1.54650683355052D-16,2.37420372073643,0.24,-12.7,                   109P    113
-6.41511880805674,0.,0.,0.;                                          109P    114
126,1,1,0,0,1,0,-5.08,-5.08,0.,0.,1.,1.,-2.,2.37420372073643,        111P    115
2.71436267399341,-3.49676543189026D-16,2.37420372073643,             111P    116
2.71436267399341,-5.08,0.,0.,0.,0.;                                  111P    117
126,1,1,0,0,1,0,0.,0.,0.3048,0.3048,1.,1.,-2.,2.49420372073643,      113P    118
2.71436267399341,-2.,2.37420372073643,2.71436267399341,0.,           113P    119
0.3048,0.,0.,0.;                                                     113P    120
126,1,1,0,0,1,0,-6.28488119194326,-6.28488119194326,0.,0.,1.,1.,     115P    121
-2.,2.37420372073643,0.24,-2.,2.37420372073643,2.71436267399341,     115P    122
-6.28488119194326,0.,0.,0.,0.;                                       115P    123
128,1,1,1,1,0,0,1,0,0,-0.609599999999999,-0.609599999999999,         117P    124
1.77635683940025D-15,1.77635683940025D-15,-1.143,-1.143,             117P    125
-0.533399999999999,-0.533399999999999,1.,1.,1.,1.,                   117P    126
-4.65862739303747D-31,2.25420372073643,0.24,                         117P    127
-7.7655057480584D-17,2.25420372073643,-8.29581857600715D-32,         117P    128
-1.36741226158312D-16,2.49420372073643,0.24,                         117P    129
-2.14396283638896D-16,2.49420372073643,-3.87138200213666D-32,        117P    130
-0.609599999999999,1.77635683940025D-15,-1.143,                      117P    131
-0.533399999999999;                                                  117P    132
128,1,1,1,1,0,0,1,0,0,-1.143,-1.143,-0.5334,-0.5334,                 119P    133
8.88178419700125D-16,8.88178419700125D-16,0.609600000000001,         119P    134
0.609600000000001,1.,1.,1.,1.,-2.,2.25420372073643,                  119P    135
-9.59398085143033D-60,-2.,2.25420372073643,0.24,-2.,                 119P    136
2.49420372073643,0.,-2.,2.49420372073643,0.24,-1.143,-0.5334,        119P    137
8.88178419700125D-16,0.609600000000001;                              119P    138
128,1,2,1,2,0,0,0,0,0,-4.16666666666667,-4.16666666666667,           121P    139
4.16666666666667,4.16666666666667,0.,0.,0.,1.5707963267949,          121P    140
1.5707963267949,1.5707963267949,1.,1.,0.707106781186548,             121P    141
0.707106781186548,1.,1.,-1.74838271594513D-16,2.25420372073643,      121P    142
0.,-2.,2.25420372073643,0.,-1.74838271594513D-16,                    121P    143
2.49420372073643,8.74191357972564D-17,-2.,2.49420372073643,          121P    144
8.74191357972564D-17,-1.74838271594513D-16,2.49420372073643,         121P    145
0.24,-2.,2.49420372073643,0.24,-4.16666666666667,                    121P    146
4.16666666666667,0.,1.5707963267949;                                 121P    147
128,1,2,1,2,0,0,0,0,0,-8.33333333333333,-8.33333333333333,           123P    148
8.33333333333334,8.33333333333334,0.,0.,0.,1.5707963267949,          123P    149
1.5707963267949,1.5707963267949,1.,1.,0.707106781186547,             123P    150
0.707106781186547,1.,1.,-2.,2.25420372073643,0.12,                   123P    151
-1.74838271594513D-16,2.25420372073643,0.12,-2.,                     123P    152
2.37420372073643,0.12,-1.74838271594513D-16,2.37420372073643,        123P    153
0.12,-2.,2.37420372073643,0.24,-1.74838271594513D-16,                123P    154
2.37420372073643,0.24,-8.33333333333333,8.33333333333334,0.,         123P    155
1.5707963267949;                                                     123P    156
128,1,1,1,1,0,0,1,0,0,0.,0.,0.3048,0.3048,0.,0.,                     125P    157
5.72567745067053,5.72567745067053,1.,1.,1.,1.,-2.,0.,0.,-2.,0.,      125P    158
0.12,-2.,2.25420372073643,0.,-2.,2.25420372073643,0.12,0.,           125P    159
0.3048,0.,5.72567745067053;                                          125P    160
128,1,1,1,1,0,0,1,0,0,-2.54,-2.54,2.54,2.54,-6.35,-6.35,             127P    161
-0.624322549329463,-0.624322549329463,1.,1.,1.,1.,-2.,0.,0.12,       127P    162
0.,0.,0.12,-2.,2.25420372073643,0.12,0.,2.25420372073643,0.12,       127P    163
-2.54,2.54,-6.35,-0.624322549329463;                                 127P    164
128,1,1,1,1,0,0,1,0,0,-2.54,-2.54,2.54,2.54,-6.35,-6.35,             129P    165
-0.624322549329465,-0.624322549329465,1.,1.,1.,1.,0.,0.,0.,-2.,      129P    166
0.,0.,0.,2.25420372073643,0.,-2.,2.25420372073643,0.,-2.54,2.54,     129P    167
-6.35,-0.624322549329465;                                            129P    168
128,1,1,1,1,0,0,1,0,0,-0.3048,-0.3048,0.,0.,-12.7,-12.7,             131P    169
-6.97432254932946,-6.97432254932946,1.,1.,1.,1.,0.,0.,0.12,0.,       131P    170
0.,0.,-1.38030168561296D-16,2.25420372073643,0.12,                   131P    171
-1.38030168561296D-16,2.25420372073643,0.,-0.3048,0.,-12.7,          131P    172
-6.97432254932946;                                                   131P    173
128,1,1,1,1,0,0,1,0,0,-0.3048,-0.3048,0.,0.,-5.08,-5.08,0.,0.,       133P    174
1.,1.,1.,1.,-2.,0.,0.12,-2.,0.,0.,0.,0.,0.12,0.,0.,0.,-0.3048,       133P    175
0.,-5.08,0.;                                                         133P    176
128,1,1,1,1,0,0,1,0,0,-2.54,-2.54,2.54,2.54,0.0651188080567362,      135P    177
0.0651188080567362,6.35,6.35,1.,1.,1.,1.,-1.74838271594513D-16,      135P    178
2.49420372073643,0.24,-2.,2.49420372073643,0.24,                     135P    179
-3.49676543189026D-16,2.49420372073643,2.71436267399341,-2.,         135P    180
2.49420372073643,2.71436267399341,-2.54,2.54,0.0651188080567362,     135P    181
6.35;                                                                135P    182
128,1,1,1,1,0,0,1,0,0,-0.3048,-0.3048,8.32667268468867D-16,          137P    183
8.32667268468867D-16,-6.28488119194327,-6.28488119194327,0.,0.,      137P    184
1.,1.,1.,1.,-1.54650683355052D-16,2.37420372073643,                  137P    185
0.239999999999999,-1.54650683355052D-16,2.49420372073643,            137P    186
0.239999999999999,-3.06161699786838D-16,2.37420372073643,            137P    187
2.71436267399341,-3.06161699786838D-16,2.49420372073643,             137P    188
2.71436267399341,-0.3048,8.32667268468867D-16,-6.28488119194327,     137P    189
0.;                                                                  137P    190
128,1,1,1,1,0,0,1,0,0,0.,0.,0.3048,0.3048,0.,0.,5.08,5.08,1.,1.,     139P    191
1.,1.,-2.,2.49420372073643,2.71436267399341,-2.,                     139P    192
2.37420372073643,2.71436267399341,-3.49676543189026D-16,             139P    193
2.49420372073643,2.71436267399341,-3.49676543189026D-16,             139P    194
2.37420372073643,2.71436267399341,0.,0.3048,0.,5.08;                 139P    195
128,1,1,1,1,0,0,1,0,0,-8.88178419700125D-16,                         141P    196
-8.88178419700125D-16,0.304800000000001,0.304800000000001,           141P    197
6.41511880805674,6.41511880805674,12.7,12.7,1.,1.,1.,1.,-2.,         141P    198
2.49420372073643,0.24,-2.,2.37420372073643,0.24,-2.,                 141P    199
2.49420372073643,2.71436267399341,-2.,2.37420372073643,              141P    200
2.71436267399341,-8.88178419700125D-16,0.304800000000001,            141P    201
6.41511880805674,12.7;                                               141P    202
128,1,1,1,1,0,0,1,0,0,-2.54,-2.54,2.54,2.54,0.0651188080567371,      143P    203
0.0651188080567371,6.35,6.35,1.,1.,1.,1.,-2.,2.37420372073643,       143P    204
0.24,-1.74838271594513D-16,2.37420372073643,0.24,-2.,                143P    205
2.37420372073643,2.71436267399341,-3.49676543189026D-16,             143P    206
2.37420372073643,2.71436267399341,-2.54,2.54,0.0651188080567371,     143P    207
6.35;                                                                143P    208
502,16,-1.54650683355052D-16,2.49420372073643,0.24,                  145P    209
-1.38030168561296D-16,2.25420372073643,0.,-1.54650683355052D-16,     145P    210
2.37420372073643,0.24,-1.38030168561296D-16,2.25420372073643,        145P    211
0.12,-2.,2.25420372073643,0.,-2.,2.49420372073643,0.24,-2.,          145P    212
2.25420372073643,0.12,-2.,2.37420372073643,0.24,-2.,0.,0.,-2.,       145P    213
0.,0.12,0.,0.,0.12,0.,0.,0.,-2.,2.49420372073643,                    145P    214
2.71436267399341,-3.06161699786838D-16,2.49420372073643,             145P    215
2.71436267399341,-3.06161699786838D-16,2.37420372073643,             145P    216
2.71436267399341,-2.,2.37420372073643,2.71436267399341;              145P    217
504,28,61,145,1,145,2,63,145,3,145,1,65,145,4,145,3,67,145,2,        147P    218
145,4,69,145,5,145,6,71,145,7,145,5,73,145,8,145,7,75,145,6,145,     147P    219
8,77,145,1,145,6,79,145,5,145,2,81,145,4,145,7,83,145,8,145,3,       147P    220
85,145,5,145,9,87,145,9,145,10,89,145,10,145,7,91,145,11,145,10,     147P    221
93,145,4,145,11,95,145,12,145,2,97,145,9,145,12,99,145,12,145,       147P    222
11,101,145,13,145,6,103,145,14,145,13,105,145,1,145,14,107,145,      147P    223
14,145,15,109,145,15,145,3,111,145,16,145,15,113,145,13,145,16,      147P    224
115,145,8,145,16;                                                    147P    225
406,1,6HSolid1;                                                      149P    226
314,74.9019607843137,74.9019607843137,74.9019607843137,;             151P    227
S      1G      3D    152P    227                                        T      1
